<mxfile host="app.diagrams.net" modified="2021-08-20T17:35:35.858Z" agent="5.0 (X11)" etag="rY8oQBSmZ3U0ZvybU1tU" version="14.9.7" type="github">
  <diagram id="eH1nuQPLEDeErZIDG2ag" name="Page-1">
    <mxGraphModel dx="2067" dy="634" grid="1" gridSize="10" guides="1" tooltips="1" connect="1" arrows="1" fold="1" page="1" pageScale="1" pageWidth="827" pageHeight="1169" math="0" shadow="0">
      <root>
        <mxCell id="0" />
        <mxCell id="1" parent="0" />
        <mxCell id="dpG7eirAu62OzAtmFx0E-1" value="manageInputs()" style="swimlane;fontStyle=0;childLayout=stackLayout;horizontal=1;startSize=26;horizontalStack=0;resizeParent=1;resizeParentMax=0;resizeLast=0;collapsible=1;marginBottom=0;" parent="1" vertex="1">
          <mxGeometry x="-20" y="10" width="140" height="104" as="geometry" />
        </mxCell>
        <mxCell id="dpG7eirAu62OzAtmFx0E-4" value="filterKeywords()" style="text;fillColor=none;align=left;verticalAlign=top;spacingLeft=4;spacingRight=4;overflow=hidden;rotatable=0;points=[[0,0.5],[1,0.5]];portConstraint=eastwest;" parent="dpG7eirAu62OzAtmFx0E-1" vertex="1">
          <mxGeometry y="26" width="140" height="26" as="geometry" />
        </mxCell>
        <mxCell id="PX1pCOsUWiTrpoE3yPsB-32" value="manageKeywords()" style="text;fillColor=none;align=left;verticalAlign=top;spacingLeft=4;spacingRight=4;overflow=hidden;rotatable=0;points=[[0,0.5],[1,0.5]];portConstraint=eastwest;" vertex="1" parent="dpG7eirAu62OzAtmFx0E-1">
          <mxGeometry y="52" width="140" height="26" as="geometry" />
        </mxCell>
        <mxCell id="PX1pCOsUWiTrpoE3yPsB-79" value="filtersSearch()" style="text;fillColor=none;align=left;verticalAlign=top;spacingLeft=4;spacingRight=4;overflow=hidden;rotatable=0;points=[[0,0.5],[1,0.5]];portConstraint=eastwest;" vertex="1" parent="dpG7eirAu62OzAtmFx0E-1">
          <mxGeometry y="78" width="140" height="26" as="geometry" />
        </mxCell>
        <mxCell id="dpG7eirAu62OzAtmFx0E-5" value="filterKeywords()" style="swimlane;fontStyle=0;childLayout=stackLayout;horizontal=1;startSize=26;horizontalStack=0;resizeParent=1;resizeParentMax=0;resizeLast=0;collapsible=1;marginBottom=0;" parent="1" vertex="1">
          <mxGeometry x="-350" y="264" width="140" height="52" as="geometry" />
        </mxCell>
        <mxCell id="dpG7eirAu62OzAtmFx0E-6" value="manageKeywords()" style="text;strokeColor=none;fillColor=none;align=left;verticalAlign=top;spacingLeft=4;spacingRight=4;overflow=hidden;rotatable=0;points=[[0,0.5],[1,0.5]];portConstraint=eastwest;" parent="dpG7eirAu62OzAtmFx0E-5" vertex="1">
          <mxGeometry y="26" width="140" height="26" as="geometry" />
        </mxCell>
        <mxCell id="PX1pCOsUWiTrpoE3yPsB-6" value="addMainSearchEvent()" style="swimlane;fontStyle=0;childLayout=stackLayout;horizontal=1;startSize=26;horizontalStack=0;resizeParent=1;resizeParentMax=0;resizeLast=0;collapsible=1;marginBottom=0;" vertex="1" parent="1">
          <mxGeometry x="250" y="30" width="140" height="130" as="geometry" />
        </mxCell>
        <mxCell id="PX1pCOsUWiTrpoE3yPsB-7" value="recipeNotFound()" style="text;strokeColor=none;fillColor=none;align=left;verticalAlign=top;spacingLeft=4;spacingRight=4;overflow=hidden;rotatable=0;points=[[0,0.5],[1,0.5]];portConstraint=eastwest;" vertex="1" parent="PX1pCOsUWiTrpoE3yPsB-6">
          <mxGeometry y="26" width="140" height="26" as="geometry" />
        </mxCell>
        <mxCell id="PX1pCOsUWiTrpoE3yPsB-8" value="mainSearch()" style="text;strokeColor=none;fillColor=none;align=left;verticalAlign=top;spacingLeft=4;spacingRight=4;overflow=hidden;rotatable=0;points=[[0,0.5],[1,0.5]];portConstraint=eastwest;" vertex="1" parent="PX1pCOsUWiTrpoE3yPsB-6">
          <mxGeometry y="52" width="140" height="26" as="geometry" />
        </mxCell>
        <mxCell id="PX1pCOsUWiTrpoE3yPsB-9" value="filterRecipes()" style="text;strokeColor=none;fillColor=none;align=left;verticalAlign=top;spacingLeft=4;spacingRight=4;overflow=hidden;rotatable=0;points=[[0,0.5],[1,0.5]];portConstraint=eastwest;" vertex="1" parent="PX1pCOsUWiTrpoE3yPsB-6">
          <mxGeometry y="78" width="140" height="26" as="geometry" />
        </mxCell>
        <mxCell id="PX1pCOsUWiTrpoE3yPsB-33" value="displayRecipes()" style="text;strokeColor=none;fillColor=none;align=left;verticalAlign=top;spacingLeft=4;spacingRight=4;overflow=hidden;rotatable=0;points=[[0,0.5],[1,0.5]];portConstraint=eastwest;" vertex="1" parent="PX1pCOsUWiTrpoE3yPsB-6">
          <mxGeometry y="104" width="140" height="26" as="geometry" />
        </mxCell>
        <mxCell id="PX1pCOsUWiTrpoE3yPsB-11" value="mainSearch()" style="swimlane;fontStyle=0;childLayout=stackLayout;horizontal=1;startSize=26;horizontalStack=0;resizeParent=1;resizeParentMax=0;resizeLast=0;collapsible=1;marginBottom=0;" vertex="1" parent="1">
          <mxGeometry x="420" y="76" width="140" height="104" as="geometry" />
        </mxCell>
        <mxCell id="PX1pCOsUWiTrpoE3yPsB-12" value="filterRecipes()" style="text;strokeColor=none;fillColor=none;align=left;verticalAlign=top;spacingLeft=4;spacingRight=4;overflow=hidden;rotatable=0;points=[[0,0.5],[1,0.5]];portConstraint=eastwest;" vertex="1" parent="PX1pCOsUWiTrpoE3yPsB-11">
          <mxGeometry y="26" width="140" height="26" as="geometry" />
        </mxCell>
        <mxCell id="PX1pCOsUWiTrpoE3yPsB-13" value="filterKeywords()" style="text;strokeColor=none;fillColor=none;align=left;verticalAlign=top;spacingLeft=4;spacingRight=4;overflow=hidden;rotatable=0;points=[[0,0.5],[1,0.5]];portConstraint=eastwest;" vertex="1" parent="PX1pCOsUWiTrpoE3yPsB-11">
          <mxGeometry y="52" width="140" height="26" as="geometry" />
        </mxCell>
        <mxCell id="PX1pCOsUWiTrpoE3yPsB-14" value="displayRecipes()" style="text;strokeColor=none;fillColor=none;align=left;verticalAlign=top;spacingLeft=4;spacingRight=4;overflow=hidden;rotatable=0;points=[[0,0.5],[1,0.5]];portConstraint=eastwest;" vertex="1" parent="PX1pCOsUWiTrpoE3yPsB-11">
          <mxGeometry y="78" width="140" height="26" as="geometry" />
        </mxCell>
        <mxCell id="PX1pCOsUWiTrpoE3yPsB-15" value="addEventListenerFilterClose()" style="swimlane;fontStyle=0;childLayout=stackLayout;horizontal=1;startSize=26;horizontalStack=0;resizeParent=1;resizeParentMax=0;resizeLast=0;collapsible=1;marginBottom=0;" vertex="1" parent="1">
          <mxGeometry x="350" y="326" width="180" height="52" as="geometry" />
        </mxCell>
        <mxCell id="PX1pCOsUWiTrpoE3yPsB-16" value="closeFilter()" style="text;strokeColor=none;fillColor=none;align=left;verticalAlign=top;spacingLeft=4;spacingRight=4;overflow=hidden;rotatable=0;points=[[0,0.5],[1,0.5]];portConstraint=eastwest;" vertex="1" parent="PX1pCOsUWiTrpoE3yPsB-15">
          <mxGeometry y="26" width="180" height="26" as="geometry" />
        </mxCell>
        <mxCell id="PX1pCOsUWiTrpoE3yPsB-44" style="edgeStyle=orthogonalEdgeStyle;rounded=0;orthogonalLoop=1;jettySize=auto;html=1;exitX=1;exitY=0.75;exitDx=0;exitDy=0;entryX=0.5;entryY=0;entryDx=0;entryDy=0;" edge="1" parent="1" source="PX1pCOsUWiTrpoE3yPsB-19" target="PX1pCOsUWiTrpoE3yPsB-27">
          <mxGeometry relative="1" as="geometry" />
        </mxCell>
        <mxCell id="PX1pCOsUWiTrpoE3yPsB-19" value="addListenerOnKeywords()" style="swimlane;fontStyle=0;childLayout=stackLayout;horizontal=1;startSize=26;horizontalStack=0;resizeParent=1;resizeParentMax=0;resizeLast=0;collapsible=1;marginBottom=0;" vertex="1" parent="1">
          <mxGeometry x="540" y="10" width="170" height="52" as="geometry" />
        </mxCell>
        <mxCell id="PX1pCOsUWiTrpoE3yPsB-20" value="createBadge()" style="text;strokeColor=none;fillColor=none;align=left;verticalAlign=top;spacingLeft=4;spacingRight=4;overflow=hidden;rotatable=0;points=[[0,0.5],[1,0.5]];portConstraint=eastwest;" vertex="1" parent="PX1pCOsUWiTrpoE3yPsB-19">
          <mxGeometry y="26" width="170" height="26" as="geometry" />
        </mxCell>
        <mxCell id="PX1pCOsUWiTrpoE3yPsB-27" value="createBadge()" style="swimlane;fontStyle=0;childLayout=stackLayout;horizontal=1;startSize=26;horizontalStack=0;resizeParent=1;resizeParentMax=0;resizeLast=0;collapsible=1;marginBottom=0;" vertex="1" parent="1">
          <mxGeometry x="720" y="150" width="170" height="130" as="geometry" />
        </mxCell>
        <mxCell id="PX1pCOsUWiTrpoE3yPsB-28" value="addEventListenerFilterClose()" style="text;strokeColor=none;fillColor=none;align=left;verticalAlign=top;spacingLeft=4;spacingRight=4;overflow=hidden;rotatable=0;points=[[0,0.5],[1,0.5]];portConstraint=eastwest;" vertex="1" parent="PX1pCOsUWiTrpoE3yPsB-27">
          <mxGeometry y="26" width="170" height="26" as="geometry" />
        </mxCell>
        <mxCell id="PX1pCOsUWiTrpoE3yPsB-29" value="filterRecipes()" style="text;strokeColor=none;fillColor=none;align=left;verticalAlign=top;spacingLeft=4;spacingRight=4;overflow=hidden;rotatable=0;points=[[0,0.5],[1,0.5]];portConstraint=eastwest;" vertex="1" parent="PX1pCOsUWiTrpoE3yPsB-27">
          <mxGeometry y="52" width="170" height="26" as="geometry" />
        </mxCell>
        <mxCell id="PX1pCOsUWiTrpoE3yPsB-30" value="filterKeywords()" style="text;strokeColor=none;fillColor=none;align=left;verticalAlign=top;spacingLeft=4;spacingRight=4;overflow=hidden;rotatable=0;points=[[0,0.5],[1,0.5]];portConstraint=eastwest;" vertex="1" parent="PX1pCOsUWiTrpoE3yPsB-27">
          <mxGeometry y="78" width="170" height="26" as="geometry" />
        </mxCell>
        <mxCell id="PX1pCOsUWiTrpoE3yPsB-50" value="displayRecipes()" style="text;strokeColor=none;fillColor=none;align=left;verticalAlign=top;spacingLeft=4;spacingRight=4;overflow=hidden;rotatable=0;points=[[0,0.5],[1,0.5]];portConstraint=eastwest;" vertex="1" parent="PX1pCOsUWiTrpoE3yPsB-27">
          <mxGeometry y="104" width="170" height="26" as="geometry" />
        </mxCell>
        <mxCell id="PX1pCOsUWiTrpoE3yPsB-31" value="displayRecipes()" style="rounded=0;whiteSpace=wrap;html=1;" vertex="1" parent="1">
          <mxGeometry x="280" y="268" width="100" height="20" as="geometry" />
        </mxCell>
        <mxCell id="PX1pCOsUWiTrpoE3yPsB-35" style="edgeStyle=orthogonalEdgeStyle;rounded=0;orthogonalLoop=1;jettySize=auto;html=1;exitX=1;exitY=0.5;exitDx=0;exitDy=0;entryX=0.5;entryY=0;entryDx=0;entryDy=0;" edge="1" parent="1" source="PX1pCOsUWiTrpoE3yPsB-8" target="PX1pCOsUWiTrpoE3yPsB-11">
          <mxGeometry relative="1" as="geometry" />
        </mxCell>
        <mxCell id="PX1pCOsUWiTrpoE3yPsB-36" style="edgeStyle=orthogonalEdgeStyle;rounded=0;orthogonalLoop=1;jettySize=auto;html=1;exitX=0;exitY=0.5;exitDx=0;exitDy=0;entryX=0.5;entryY=0;entryDx=0;entryDy=0;" edge="1" parent="1" source="PX1pCOsUWiTrpoE3yPsB-14" target="PX1pCOsUWiTrpoE3yPsB-31">
          <mxGeometry relative="1" as="geometry" />
        </mxCell>
        <mxCell id="PX1pCOsUWiTrpoE3yPsB-37" style="edgeStyle=orthogonalEdgeStyle;rounded=0;orthogonalLoop=1;jettySize=auto;html=1;exitX=0;exitY=0.5;exitDx=0;exitDy=0;entryX=0.5;entryY=0;entryDx=0;entryDy=0;" edge="1" parent="1" source="dpG7eirAu62OzAtmFx0E-6" target="PX1pCOsUWiTrpoE3yPsB-38">
          <mxGeometry relative="1" as="geometry">
            <mxPoint x="110" y="250" as="targetPoint" />
          </mxGeometry>
        </mxCell>
        <mxCell id="PX1pCOsUWiTrpoE3yPsB-38" value="manageKeywords()" style="rounded=0;whiteSpace=wrap;html=1;" vertex="1" parent="1">
          <mxGeometry x="90" y="264" width="120" height="24" as="geometry" />
        </mxCell>
        <mxCell id="PX1pCOsUWiTrpoE3yPsB-41" style="edgeStyle=orthogonalEdgeStyle;rounded=0;orthogonalLoop=1;jettySize=auto;html=1;exitX=0;exitY=0.5;exitDx=0;exitDy=0;entryX=0.5;entryY=0;entryDx=0;entryDy=0;" edge="1" parent="1" source="dpG7eirAu62OzAtmFx0E-4" target="dpG7eirAu62OzAtmFx0E-5">
          <mxGeometry relative="1" as="geometry" />
        </mxCell>
        <mxCell id="PX1pCOsUWiTrpoE3yPsB-42" style="edgeStyle=orthogonalEdgeStyle;rounded=0;orthogonalLoop=1;jettySize=auto;html=1;entryX=0.75;entryY=0;entryDx=0;entryDy=0;" edge="1" parent="1" source="PX1pCOsUWiTrpoE3yPsB-32" target="PX1pCOsUWiTrpoE3yPsB-38">
          <mxGeometry relative="1" as="geometry" />
        </mxCell>
        <mxCell id="PX1pCOsUWiTrpoE3yPsB-45" value="filterRecipes()" style="rounded=0;whiteSpace=wrap;html=1;" vertex="1" parent="1">
          <mxGeometry x="830" y="372" width="100" height="30" as="geometry" />
        </mxCell>
        <mxCell id="PX1pCOsUWiTrpoE3yPsB-46" style="edgeStyle=orthogonalEdgeStyle;rounded=0;orthogonalLoop=1;jettySize=auto;html=1;exitX=1;exitY=0.5;exitDx=0;exitDy=0;entryX=0.5;entryY=0;entryDx=0;entryDy=0;" edge="1" parent="1" source="PX1pCOsUWiTrpoE3yPsB-27" target="PX1pCOsUWiTrpoE3yPsB-45">
          <mxGeometry relative="1" as="geometry" />
        </mxCell>
        <mxCell id="PX1pCOsUWiTrpoE3yPsB-48" style="edgeStyle=orthogonalEdgeStyle;rounded=0;orthogonalLoop=1;jettySize=auto;html=1;exitX=0;exitY=0.5;exitDx=0;exitDy=0;entryX=0.5;entryY=0;entryDx=0;entryDy=0;" edge="1" parent="1" source="PX1pCOsUWiTrpoE3yPsB-30" target="dpG7eirAu62OzAtmFx0E-5">
          <mxGeometry relative="1" as="geometry">
            <Array as="points">
              <mxPoint x="720" y="470" />
              <mxPoint x="240" y="470" />
              <mxPoint x="240" y="120" />
              <mxPoint x="40" y="120" />
              <mxPoint x="40" y="180" />
            </Array>
          </mxGeometry>
        </mxCell>
        <mxCell id="PX1pCOsUWiTrpoE3yPsB-49" style="edgeStyle=orthogonalEdgeStyle;rounded=0;orthogonalLoop=1;jettySize=auto;html=1;entryX=0.75;entryY=0;entryDx=0;entryDy=0;" edge="1" parent="1" target="dpG7eirAu62OzAtmFx0E-5">
          <mxGeometry relative="1" as="geometry">
            <mxPoint x="720" y="241" as="sourcePoint" />
            <Array as="points">
              <mxPoint x="385" y="241" />
              <mxPoint x="385" y="190" />
              <mxPoint x="65" y="190" />
            </Array>
          </mxGeometry>
        </mxCell>
        <mxCell id="PX1pCOsUWiTrpoE3yPsB-51" style="edgeStyle=orthogonalEdgeStyle;rounded=0;orthogonalLoop=1;jettySize=auto;html=1;entryX=1;entryY=0.5;entryDx=0;entryDy=0;" edge="1" parent="1" source="PX1pCOsUWiTrpoE3yPsB-50" target="PX1pCOsUWiTrpoE3yPsB-31">
          <mxGeometry relative="1" as="geometry" />
        </mxCell>
        <mxCell id="PX1pCOsUWiTrpoE3yPsB-52" style="edgeStyle=orthogonalEdgeStyle;rounded=0;orthogonalLoop=1;jettySize=auto;html=1;exitX=0;exitY=0.5;exitDx=0;exitDy=0;entryX=1;entryY=0.25;entryDx=0;entryDy=0;" edge="1" parent="1" source="PX1pCOsUWiTrpoE3yPsB-28" target="PX1pCOsUWiTrpoE3yPsB-15">
          <mxGeometry relative="1" as="geometry" />
        </mxCell>
        <mxCell id="PX1pCOsUWiTrpoE3yPsB-56" style="edgeStyle=orthogonalEdgeStyle;rounded=0;orthogonalLoop=1;jettySize=auto;html=1;exitX=0;exitY=0.5;exitDx=0;exitDy=0;" edge="1" parent="1" source="PX1pCOsUWiTrpoE3yPsB-16">
          <mxGeometry relative="1" as="geometry">
            <mxPoint x="430" y="490" as="targetPoint" />
          </mxGeometry>
        </mxCell>
        <mxCell id="PX1pCOsUWiTrpoE3yPsB-57" value="closeFilter()" style="swimlane;fontStyle=0;childLayout=stackLayout;horizontal=1;startSize=26;horizontalStack=0;resizeParent=1;resizeParentMax=0;resizeLast=0;collapsible=1;marginBottom=0;" vertex="1" parent="1">
          <mxGeometry x="360" y="490" width="140" height="130" as="geometry" />
        </mxCell>
        <mxCell id="PX1pCOsUWiTrpoE3yPsB-58" value="manageKeywords()" style="text;strokeColor=none;fillColor=none;align=left;verticalAlign=top;spacingLeft=4;spacingRight=4;overflow=hidden;rotatable=0;points=[[0,0.5],[1,0.5]];portConstraint=eastwest;" vertex="1" parent="PX1pCOsUWiTrpoE3yPsB-57">
          <mxGeometry y="26" width="140" height="26" as="geometry" />
        </mxCell>
        <mxCell id="PX1pCOsUWiTrpoE3yPsB-59" value="mainSearch()" style="text;strokeColor=none;fillColor=none;align=left;verticalAlign=top;spacingLeft=4;spacingRight=4;overflow=hidden;rotatable=0;points=[[0,0.5],[1,0.5]];portConstraint=eastwest;" vertex="1" parent="PX1pCOsUWiTrpoE3yPsB-57">
          <mxGeometry y="52" width="140" height="26" as="geometry" />
        </mxCell>
        <mxCell id="PX1pCOsUWiTrpoE3yPsB-60" value="displayRecipes()" style="text;strokeColor=none;fillColor=none;align=left;verticalAlign=top;spacingLeft=4;spacingRight=4;overflow=hidden;rotatable=0;points=[[0,0.5],[1,0.5]];portConstraint=eastwest;" vertex="1" parent="PX1pCOsUWiTrpoE3yPsB-57">
          <mxGeometry y="78" width="140" height="26" as="geometry" />
        </mxCell>
        <mxCell id="PX1pCOsUWiTrpoE3yPsB-64" value="filterKeywords()" style="text;strokeColor=none;fillColor=none;align=left;verticalAlign=top;spacingLeft=4;spacingRight=4;overflow=hidden;rotatable=0;points=[[0,0.5],[1,0.5]];portConstraint=eastwest;" vertex="1" parent="PX1pCOsUWiTrpoE3yPsB-57">
          <mxGeometry y="104" width="140" height="26" as="geometry" />
        </mxCell>
        <mxCell id="PX1pCOsUWiTrpoE3yPsB-61" style="edgeStyle=orthogonalEdgeStyle;rounded=0;orthogonalLoop=1;jettySize=auto;html=1;exitX=0;exitY=0.5;exitDx=0;exitDy=0;entryX=0.683;entryY=1.042;entryDx=0;entryDy=0;entryPerimeter=0;" edge="1" parent="1" source="PX1pCOsUWiTrpoE3yPsB-58" target="PX1pCOsUWiTrpoE3yPsB-38">
          <mxGeometry relative="1" as="geometry" />
        </mxCell>
        <mxCell id="PX1pCOsUWiTrpoE3yPsB-62" style="edgeStyle=orthogonalEdgeStyle;rounded=0;orthogonalLoop=1;jettySize=auto;html=1;exitX=1;exitY=0.5;exitDx=0;exitDy=0;entryX=1.007;entryY=0.125;entryDx=0;entryDy=0;entryPerimeter=0;" edge="1" parent="1" source="PX1pCOsUWiTrpoE3yPsB-59" target="PX1pCOsUWiTrpoE3yPsB-11">
          <mxGeometry relative="1" as="geometry" />
        </mxCell>
        <mxCell id="PX1pCOsUWiTrpoE3yPsB-63" style="edgeStyle=orthogonalEdgeStyle;rounded=0;orthogonalLoop=1;jettySize=auto;html=1;exitX=0;exitY=0.5;exitDx=0;exitDy=0;entryX=0;entryY=0.5;entryDx=0;entryDy=0;" edge="1" parent="1" source="PX1pCOsUWiTrpoE3yPsB-60" target="PX1pCOsUWiTrpoE3yPsB-31">
          <mxGeometry relative="1" as="geometry">
            <Array as="points">
              <mxPoint x="300" y="581" />
              <mxPoint x="300" y="290" />
            </Array>
          </mxGeometry>
        </mxCell>
        <mxCell id="PX1pCOsUWiTrpoE3yPsB-66" value="filtersSearch()" style="swimlane;fontStyle=0;childLayout=stackLayout;horizontal=1;startSize=26;horizontalStack=0;resizeParent=1;resizeParentMax=0;resizeLast=0;collapsible=1;marginBottom=0;" vertex="1" parent="1">
          <mxGeometry x="-220" y="440" width="140" height="52" as="geometry" />
        </mxCell>
        <mxCell id="PX1pCOsUWiTrpoE3yPsB-67" value="manageKeywords()" style="text;strokeColor=none;fillColor=none;align=left;verticalAlign=top;spacingLeft=4;spacingRight=4;overflow=hidden;rotatable=0;points=[[0,0.5],[1,0.5]];portConstraint=eastwest;" vertex="1" parent="PX1pCOsUWiTrpoE3yPsB-66">
          <mxGeometry y="26" width="140" height="26" as="geometry" />
        </mxCell>
        <mxCell id="PX1pCOsUWiTrpoE3yPsB-70" style="edgeStyle=orthogonalEdgeStyle;rounded=0;orthogonalLoop=1;jettySize=auto;html=1;exitX=1;exitY=0.5;exitDx=0;exitDy=0;entryX=0;entryY=0.5;entryDx=0;entryDy=0;" edge="1" parent="1" source="PX1pCOsUWiTrpoE3yPsB-67" target="PX1pCOsUWiTrpoE3yPsB-38">
          <mxGeometry relative="1" as="geometry" />
        </mxCell>
        <mxCell id="PX1pCOsUWiTrpoE3yPsB-71" value="recipeNotFound()" style="rounded=0;whiteSpace=wrap;html=1;" vertex="1" parent="1">
          <mxGeometry x="-170" y="120" width="110" height="30" as="geometry" />
        </mxCell>
        <mxCell id="PX1pCOsUWiTrpoE3yPsB-72" style="edgeStyle=orthogonalEdgeStyle;rounded=0;orthogonalLoop=1;jettySize=auto;html=1;exitX=0;exitY=0.5;exitDx=0;exitDy=0;entryX=0.5;entryY=0;entryDx=0;entryDy=0;" edge="1" parent="1" source="PX1pCOsUWiTrpoE3yPsB-7" target="PX1pCOsUWiTrpoE3yPsB-71">
          <mxGeometry relative="1" as="geometry" />
        </mxCell>
        <mxCell id="PX1pCOsUWiTrpoE3yPsB-73" style="edgeStyle=orthogonalEdgeStyle;rounded=0;orthogonalLoop=1;jettySize=auto;html=1;exitX=1;exitY=0.5;exitDx=0;exitDy=0;entryX=0;entryY=0.5;entryDx=0;entryDy=0;" edge="1" parent="1" source="PX1pCOsUWiTrpoE3yPsB-9" target="PX1pCOsUWiTrpoE3yPsB-45">
          <mxGeometry relative="1" as="geometry" />
        </mxCell>
        <mxCell id="PX1pCOsUWiTrpoE3yPsB-74" style="edgeStyle=orthogonalEdgeStyle;rounded=0;orthogonalLoop=1;jettySize=auto;html=1;exitX=1;exitY=0.5;exitDx=0;exitDy=0;entryX=0.25;entryY=0;entryDx=0;entryDy=0;" edge="1" parent="1" source="PX1pCOsUWiTrpoE3yPsB-33" target="PX1pCOsUWiTrpoE3yPsB-31">
          <mxGeometry relative="1" as="geometry" />
        </mxCell>
        <mxCell id="PX1pCOsUWiTrpoE3yPsB-75" style="edgeStyle=orthogonalEdgeStyle;rounded=0;orthogonalLoop=1;jettySize=auto;html=1;entryX=0.25;entryY=0;entryDx=0;entryDy=0;" edge="1" parent="1" source="PX1pCOsUWiTrpoE3yPsB-12" target="PX1pCOsUWiTrpoE3yPsB-45">
          <mxGeometry relative="1" as="geometry" />
        </mxCell>
        <mxCell id="PX1pCOsUWiTrpoE3yPsB-76" style="edgeStyle=orthogonalEdgeStyle;rounded=0;orthogonalLoop=1;jettySize=auto;html=1;exitX=0;exitY=0.5;exitDx=0;exitDy=0;entryX=0.888;entryY=-0.128;entryDx=0;entryDy=0;entryPerimeter=0;" edge="1" parent="1" source="PX1pCOsUWiTrpoE3yPsB-13" target="dpG7eirAu62OzAtmFx0E-5">
          <mxGeometry relative="1" as="geometry" />
        </mxCell>
        <mxCell id="PX1pCOsUWiTrpoE3yPsB-77" style="edgeStyle=orthogonalEdgeStyle;rounded=0;orthogonalLoop=1;jettySize=auto;html=1;entryX=1;entryY=0.25;entryDx=0;entryDy=0;" edge="1" parent="1" source="PX1pCOsUWiTrpoE3yPsB-64" target="dpG7eirAu62OzAtmFx0E-5">
          <mxGeometry relative="1" as="geometry" />
        </mxCell>
        <mxCell id="PX1pCOsUWiTrpoE3yPsB-80" style="edgeStyle=orthogonalEdgeStyle;rounded=0;orthogonalLoop=1;jettySize=auto;html=1;exitX=1;exitY=0.5;exitDx=0;exitDy=0;entryX=0.5;entryY=0;entryDx=0;entryDy=0;" edge="1" parent="1" source="PX1pCOsUWiTrpoE3yPsB-79" target="PX1pCOsUWiTrpoE3yPsB-66">
          <mxGeometry relative="1" as="geometry">
            <Array as="points">
              <mxPoint x="140" y="101" />
              <mxPoint x="140" y="310" />
              <mxPoint x="-150" y="310" />
            </Array>
          </mxGeometry>
        </mxCell>
      </root>
    </mxGraphModel>
  </diagram>
</mxfile>
